<svg width="76" height="66" viewBox="0 0 76 66" fill="none" xmlns="http://www.w3.org/2000/svg">
<path d="M11.6772 15.8759C11.8559 16.0398 11.9577 16.2085 11.9825 16.3823C11.3273 17.2162 10.5703 17.6332 9.71154 17.6332C9.15062 17.6332 8.75351 17.4098 8.52021 16.963C8.32165 16.5709 8.20003 15.8983 8.15536 14.9452C8.11565 13.456 8.09579 12.0686 8.09579 10.783C7.58947 10.7631 7.27923 10.7383 7.16506 10.7085C7.14024 10.6688 7.12783 10.5224 7.12783 10.2692C7.12783 10.0161 7.14024 9.87707 7.16506 9.85225L8.11068 9.7629C8.11068 9.65866 8.12558 9.15979 8.15536 8.26629C8.40355 8.01313 8.76592 7.81954 9.24245 7.68551C9.72395 7.54652 10.1508 7.47703 10.5231 7.47703C10.4536 8.10744 10.3966 8.8694 10.3519 9.7629C10.5157 9.76787 11.0096 9.79765 11.8336 9.85225C11.8584 9.93664 11.8708 10.098 11.8708 10.3362C11.8708 10.5745 11.8584 10.7185 11.8336 10.7681C11.3769 10.8277 10.8681 10.8649 10.3072 10.8798C10.2874 11.4705 10.2774 12.2176 10.2774 13.121C10.2774 14.0194 10.2973 14.8683 10.337 15.6675C10.3519 15.9752 10.5058 16.1291 10.7986 16.1291C11.0965 16.1291 11.3893 16.0447 11.6772 15.8759ZM19.2497 15.7568L19.3241 12.9199C19.3241 12.8753 19.3241 12.8058 19.3241 12.7115C19.3241 12.6122 19.3241 12.5179 19.3241 12.4285C19.3241 12.3392 19.3216 12.2523 19.3167 12.1679C19.3167 12.0835 19.3117 12.0041 19.3018 11.9296C19.2919 11.8502 19.2795 11.7758 19.2646 11.7063C19.2546 11.6368 19.2373 11.5747 19.2124 11.5201C19.1926 11.4606 19.1653 11.4084 19.1305 11.3638C19.1008 11.3141 19.0635 11.2719 19.0189 11.2372C18.9742 11.1975 18.9221 11.1627 18.8625 11.1329C18.7483 11.0833 18.5597 11.0585 18.2966 11.0585C17.691 11.0585 16.9985 11.4357 16.2192 12.1902C16.2192 13.1135 16.2043 14.841 16.1745 17.3726C15.6186 17.4669 15.1619 17.514 14.8045 17.514C14.4471 17.514 14.1418 17.4669 13.8887 17.3726C13.983 16.6677 14.0301 15.2381 14.0301 13.0838C14.0301 10.9294 14.0078 9.19205 13.9631 7.87166C13.9333 7.37527 13.6231 7.09481 13.0324 7.03028C13.0274 7.00049 13.02 6.95582 13.0101 6.89625C12.9902 6.78705 12.9803 6.7101 12.9803 6.66543C12.9803 6.60586 12.9828 6.55622 12.9877 6.51651C13.6429 6.26335 14.1939 6.10947 14.6407 6.05487C15.0874 5.9953 15.4076 5.96552 15.6012 5.96552C15.7948 5.96552 15.9139 5.96552 15.9586 5.96552C16.0777 6.11444 16.1522 6.46191 16.182 7.00794C16.2118 7.55397 16.2267 8.26877 16.2267 9.15234C16.2267 10.031 16.2242 10.6713 16.2192 11.0734C16.666 10.5323 17.1822 10.1228 17.7679 9.84481C18.3537 9.56683 18.9394 9.42784 19.5252 9.42784C20.1109 9.42784 20.5676 9.62143 20.8952 10.0086C21.2278 10.3958 21.4189 10.9245 21.4685 11.5946C21.4884 11.8924 21.4983 12.1977 21.4983 12.5104C21.4983 12.8231 21.4685 13.3344 21.409 14.0443C21.3544 14.7541 21.3271 15.3895 21.3271 15.9504C21.3271 16.0795 21.4189 16.1787 21.6026 16.2482C21.7862 16.3177 21.9649 16.3525 22.1387 16.3525C22.3174 16.3525 22.439 16.3425 22.5035 16.3227C22.5631 16.4567 22.5929 16.5808 22.5929 16.695C22.5929 16.8042 22.5879 16.8787 22.578 16.9184C21.6497 17.3999 20.9573 17.6406 20.5006 17.6406C20.0439 17.6406 19.7212 17.4867 19.5326 17.179C19.344 16.8662 19.2497 16.3922 19.2497 15.7568ZM26.152 14.156C26.3009 14.8906 26.6186 15.4838 27.105 15.9355C27.5915 16.3872 28.1599 16.6131 28.8101 16.6131C29.4604 16.6131 30.1156 16.3326 30.7758 15.7717C31.024 15.9355 31.1754 16.1291 31.23 16.3525C30.7734 16.8836 30.0983 17.2634 29.2048 17.4917C28.8424 17.586 28.423 17.6332 27.9464 17.6332C27.4749 17.6332 26.9859 17.5463 26.4796 17.3726C25.9733 17.2038 25.5191 16.9556 25.117 16.628C24.7199 16.3004 24.4047 15.871 24.1714 15.3398C23.9381 14.8037 23.8214 14.2106 23.8214 13.5603C23.8214 12.91 23.9406 12.3218 24.1788 11.7956C24.4171 11.2645 24.7323 10.8301 25.1244 10.4926C25.9435 9.78276 26.8817 9.42784 27.939 9.42784C28.8672 9.42784 29.6714 9.67852 30.3514 10.1799C30.679 10.4281 30.9397 10.7507 31.1332 11.1478C31.3318 11.54 31.4311 11.9842 31.4311 12.4806C31.4311 13.3295 31.1506 13.7762 30.5897 13.8209L26.152 14.156ZM29.4281 12.2573C29.4281 11.6666 29.2643 11.2049 28.9367 10.8723C28.6091 10.5398 28.1797 10.3735 27.6486 10.3735C27.1175 10.3735 26.7154 10.6241 26.4424 11.1255C26.1693 11.6219 26.0328 12.3119 26.0328 13.1954C27.2688 13.0614 28.3857 12.9199 29.3835 12.771C29.4133 12.5923 29.4281 12.4211 29.4281 12.2573ZM15.3257 36.1961C15.5243 36.1961 15.7179 36.1316 15.9065 36.0025L16.2118 36.5014C15.8792 37.0027 15.4498 37.3527 14.9236 37.5513C14.7052 37.6356 14.4794 37.6778 14.2461 37.6778C14.0128 37.6778 13.7844 37.6158 13.561 37.4917C13.3426 37.3726 13.149 37.2187 12.9803 37.03C12.8115 36.8414 12.6452 36.6056 12.4814 36.3227C12.3226 36.0398 12.1885 35.7692 12.0793 35.5111C11.9701 35.248 11.8609 34.9502 11.7517 34.6176C11.6177 34.2254 11.4663 33.6943 11.2975 33.0242C10.955 33.5553 10.6348 33.9872 10.337 34.3198C10.337 34.8956 10.3271 35.9132 10.3072 37.3726C9.82075 37.4669 9.38641 37.514 9.00419 37.514C8.62693 37.514 8.30924 37.4619 8.05112 37.3577C8.17521 36.6081 8.23726 35.2083 8.23726 33.1582C8.23726 31.1081 8.20003 29.3459 8.12558 27.8717C8.08586 27.3951 7.77066 27.1221 7.17995 27.0526C7.17499 27.0228 7.16754 26.9782 7.15762 26.9186C7.13776 26.8044 7.12783 26.7225 7.12783 26.6729C7.12783 26.6183 7.13031 26.5711 7.13528 26.5314C8.06353 26.1641 9.01163 25.9804 9.97959 25.9804C10.0243 25.9804 10.0714 25.9804 10.1211 25.9804C10.2303 26.1194 10.2973 26.3999 10.3221 26.8218C10.3469 27.2437 10.3593 28.1 10.3593 29.3906C10.3593 30.6812 10.3568 31.8676 10.3519 32.9497C10.9029 31.9222 11.3893 31.1826 11.8113 30.7309C12.3275 30.1799 12.7619 29.8349 13.1143 29.6959C13.4717 29.5569 13.7919 29.4874 14.0748 29.4874C14.5712 29.4874 14.9733 29.6264 15.281 29.9044C15.5938 30.1774 15.7501 30.5472 15.7501 31.0138C15.7501 31.4754 15.5962 31.8453 15.2885 32.1232C14.9857 32.3963 14.6233 32.5328 14.2014 32.5328C14.112 32.5328 14.0227 32.5253 13.9333 32.5104C13.9333 31.9445 13.8241 31.5449 13.6057 31.3116C13.5064 31.2024 13.3575 31.1478 13.159 31.1478C12.9654 31.1478 12.7718 31.2273 12.5782 31.3861C12.3846 31.54 12.1612 31.7857 11.9081 32.1232C12.5931 33.3493 13.2483 34.3347 13.8738 35.0792C14.4992 35.8238 14.9832 36.1961 15.3257 36.1961ZM19.7634 34.156C19.9124 34.8906 20.23 35.4838 20.7165 35.9355C21.203 36.3872 21.7713 36.6131 22.4216 36.6131C23.0719 36.6131 23.7271 36.3326 24.3873 35.7717C24.6355 35.9355 24.7869 36.1291 24.8415 36.3525C24.3848 36.8836 23.7097 37.2634 22.8162 37.4917C22.4539 37.586 22.0344 37.6332 21.5579 37.6332C21.0863 37.6332 20.5974 37.5463 20.0911 37.3726C19.5847 37.2038 19.1305 36.9556 18.7285 36.628C18.3314 36.3004 18.0161 35.871 17.7828 35.3398C17.5495 34.8037 17.4329 34.2106 17.4329 33.5603C17.4329 32.91 17.552 32.3218 17.7903 31.7956C18.0286 31.2645 18.3438 30.8301 18.7359 30.4926C19.555 29.7828 20.4931 29.4278 21.5504 29.4278C22.4787 29.4278 23.2828 29.6785 23.9629 30.1799C24.2905 30.4281 24.5511 30.7507 24.7447 31.1478C24.9433 31.54 25.0425 31.9842 25.0425 32.4806C25.0425 33.3295 24.7621 33.7762 24.2012 33.8209L19.7634 34.156ZM23.0396 32.2573C23.0396 31.6666 22.8758 31.2049 22.5482 30.8723C22.2206 30.5398 21.7912 30.3735 21.2601 30.3735C20.7289 30.3735 20.3268 30.6241 20.0538 31.1255C19.7808 31.6219 19.6443 32.3119 19.6443 33.1954C20.8803 33.0614 21.9972 32.9199 22.9949 32.771C23.0247 32.5923 23.0396 32.4211 23.0396 32.2573ZM28.6687 34.156C28.8176 34.8906 29.1353 35.4838 29.6217 35.9355C30.1082 36.3872 30.6766 36.6131 31.3268 36.6131C31.9771 36.6131 32.6323 36.3326 33.2925 35.7717C33.5407 35.9355 33.6921 36.1291 33.7467 36.3525C33.2901 36.8836 32.615 37.2634 31.7215 37.4917C31.3591 37.586 30.9397 37.6332 30.4631 37.6332C29.9915 37.6332 29.5026 37.5463 28.9963 37.3726C28.49 37.2038 28.0358 36.9556 27.6337 36.628C27.2366 36.3004 26.9214 35.871 26.6881 35.3398C26.4548 34.8037 26.3381 34.2106 26.3381 33.5603C26.3381 32.91 26.4573 32.3218 26.6955 31.7956C26.9338 31.2645 27.249 30.8301 27.6411 30.4926C28.4602 29.7828 29.3984 29.4278 30.4557 29.4278C31.3839 29.4278 32.1881 29.6785 32.8681 30.1799C33.1957 30.4281 33.4563 30.7507 33.6499 31.1478C33.8485 31.54 33.9478 31.9842 33.9478 32.4806C33.9478 33.3295 33.6673 33.7762 33.1064 33.8209L28.6687 34.156ZM31.9448 32.2573C31.9448 31.6666 31.781 31.2049 31.4534 30.8723C31.1258 30.5398 30.6964 30.3735 30.1653 30.3735C29.6341 30.3735 29.2321 30.6241 28.9591 31.1255C28.686 31.6219 28.5495 32.3119 28.5495 33.1954C29.7855 33.0614 30.9024 32.9199 31.9002 32.771C31.93 32.5923 31.9448 32.4211 31.9448 32.2573ZM35.973 42.2049C36.0723 41.2171 36.122 39.507 36.122 37.0747C36.122 34.6375 36.0525 32.7487 35.9135 31.4084C35.8837 30.8972 35.6032 30.6192 35.0721 30.5745C35.0671 30.5447 35.0597 30.51 35.0498 30.4703C35.0448 30.4256 35.0398 30.3908 35.0349 30.366C35.0249 30.2965 35.02 30.237 35.02 30.1873C35.02 30.1377 35.0225 30.093 35.0274 30.0533C35.6876 29.8001 36.2262 29.6463 36.6432 29.5916C37.0601 29.5321 37.3629 29.5023 37.5516 29.5023C37.7452 29.5023 37.8643 29.5023 37.909 29.5023C38.0231 29.676 38.1001 29.9962 38.1398 30.4628C38.4823 30.1501 38.8819 29.9019 39.3386 29.7182C39.8002 29.5346 40.2296 29.4427 40.6267 29.4427C41.0288 29.4427 41.3762 29.475 41.6691 29.5395C41.962 29.5991 42.2499 29.7133 42.5328 29.882C42.8207 30.0458 43.0689 30.2593 43.2774 30.5224C43.7887 31.1677 44.0443 32.0885 44.0443 33.2848C44.0443 33.8556 43.955 34.3868 43.7763 34.8782C43.5976 35.3696 43.3618 35.7841 43.0689 36.1217C42.781 36.4592 42.4509 36.7471 42.0786 36.9854C41.3589 37.447 40.6416 37.6778 39.9268 37.6778C39.212 37.6778 38.6362 37.6059 38.1994 37.4619C38.1994 38.4001 38.1894 39.996 38.1696 42.2496C37.7179 42.329 37.3108 42.3687 36.9484 42.3687C36.591 42.3687 36.2659 42.3141 35.973 42.2049ZM38.1696 31.2595C38.1894 32.5005 38.1994 34.2478 38.1994 36.5014C38.5071 36.6156 38.8571 36.6726 39.2492 36.6726C39.6463 36.6726 39.9789 36.6106 40.247 36.4865C40.515 36.3574 40.7657 36.1688 40.999 35.9206C41.5103 35.3696 41.7659 34.5382 41.7659 33.4263C41.7659 32.2796 41.5301 31.5052 41.0586 31.1032C40.7061 30.8004 40.2693 30.649 39.7481 30.649C39.2318 30.649 38.7057 30.8525 38.1696 31.2595ZM50.6414 32.3764C50.6414 31.5276 50.4478 31.1032 50.0606 31.1032C49.7776 31.1032 49.5071 31.1851 49.249 31.3489C48.9909 31.5077 48.7129 31.7311 48.4151 32.019C48.4151 32.5154 48.4002 34.3049 48.3704 37.3875C47.8194 37.4818 47.3677 37.5289 47.0152 37.5289C46.6678 37.5289 46.3674 37.4818 46.1143 37.3875C46.1739 36.5634 46.2036 35.1512 46.2036 33.1508V31.4084C46.2036 31.0312 46.0721 30.8078 45.809 30.7383C45.6303 30.6837 45.3896 30.644 45.0868 30.6192C45.052 30.4703 45.0346 30.3586 45.0346 30.2841C45.0346 30.2047 45.0371 30.1426 45.0421 30.098C45.7569 29.6959 46.6405 29.4949 47.6928 29.4949C47.8665 29.4949 47.9956 29.4973 48.08 29.5023C48.2239 29.7505 48.3083 30.0086 48.3332 30.2767C48.3629 30.5447 48.3853 30.8004 48.4002 31.0436C49.0653 30.2345 49.6262 29.743 50.0829 29.5693C50.3013 29.4849 50.5322 29.4427 50.7754 29.4427C51.2718 29.4427 51.6689 29.5817 51.9667 29.8597C52.2695 30.1327 52.4209 30.5348 52.4209 31.0659C52.4209 31.473 52.272 31.813 51.9742 32.086C51.6813 32.3541 51.3264 32.4881 50.9094 32.4881C50.8201 32.4881 50.7307 32.4806 50.6414 32.4657V32.3764ZM14.8045 51.2893C14.8045 52.0438 14.4124 52.4211 13.6281 52.4211C13.36 52.4211 13.1664 52.3913 13.0473 52.3317C12.9281 52.2672 12.8686 52.23 12.8686 52.22C12.8835 52.1257 12.8909 52.0289 12.8909 51.9296C12.8909 51.463 12.7395 51.0932 12.4367 50.8202C12.1389 50.5422 11.7368 50.4032 11.2305 50.4032C10.7242 50.4032 10.3171 50.6217 10.0094 51.0585C9.70161 51.4903 9.54773 52.1629 9.54773 53.0763C9.54773 53.9897 9.81082 54.7963 10.337 55.4962C10.8681 56.1961 11.4588 56.5461 12.1091 56.5461C12.67 56.5461 13.2309 56.3202 13.7919 55.8685C13.9209 55.7643 14.05 55.6402 14.179 55.4962C14.2883 55.5657 14.3999 55.665 14.5141 55.794C14.6332 55.9181 14.7052 56.0373 14.73 56.1514C14.4967 56.4642 14.1443 56.7645 13.6727 57.0524C13.0274 57.4396 12.3151 57.6332 11.5358 57.6332C10.7564 57.6332 10.0466 57.4694 9.40626 57.1417C8.77088 56.8141 8.26953 56.345 7.9022 55.7345C7.53487 55.1239 7.35121 54.429 7.35121 53.6496C7.35121 52.1505 7.90468 50.9939 9.01163 50.1799C9.72147 49.6587 10.5852 49.3981 11.6028 49.3981C12.4615 49.3981 13.2086 49.5842 13.844 49.9565C14.1319 50.1253 14.3627 50.3263 14.5365 50.5596C14.7102 50.7929 14.7995 51.0361 14.8045 51.2893ZM24.6777 53.322C24.6777 53.9723 24.561 54.5828 24.3277 55.1537C24.0944 55.7245 23.7643 56.1912 23.3374 56.5535C22.4787 57.2832 21.3444 57.6481 19.9347 57.6481C19.2298 57.6481 18.5795 57.4818 17.9839 57.1492C17.3882 56.8166 16.9142 56.3525 16.5617 55.7568C16.2093 55.1562 16.0331 54.4414 16.0331 53.6124C16.0331 52.7785 16.2465 52.0289 16.6734 51.3638C17.5123 50.0533 18.9196 49.3981 20.8952 49.3981C21.888 49.3981 22.7591 49.7381 23.5087 50.4181C24.288 51.128 24.6777 52.0959 24.6777 53.322ZM18.2296 53.5379C18.2296 54.3868 18.4753 55.1289 18.9667 55.7643C19.4582 56.3996 20.034 56.7173 20.6942 56.7173C21.9153 56.7173 22.5258 55.7221 22.5258 53.7315C22.5258 52.7437 22.3 51.9421 21.8483 51.3265C21.3966 50.711 20.8207 50.4032 20.1208 50.4032C19.7684 50.4032 19.4631 50.4926 19.205 50.6713C18.9469 50.85 18.7508 51.0907 18.6168 51.3935C18.3587 51.9743 18.2296 52.6891 18.2296 53.5379ZM26.7923 55.392C27.0703 55.1636 27.3632 55.0495 27.6709 55.0495C27.9787 55.0495 28.2343 55.1487 28.4378 55.3473C28.6463 55.5409 28.7506 55.8139 28.7506 56.1663C28.7506 56.5138 28.6165 56.8067 28.3485 57.0449C28.0854 57.2832 27.795 57.4023 27.4773 57.4023C27.1596 57.4023 26.8916 57.3055 26.6732 57.112C26.4597 56.9134 26.353 56.6453 26.353 56.3078C26.353 55.9653 26.4994 55.66 26.7923 55.392Z" fill="#2D2D2D"/>
<rect x="0.833935" y="0.833935" width="73.8628" height="64.3321" rx="3.93141" stroke="#2D2D2D" stroke-width="1.66787"/>
</svg>
